<svg xmlns="http://www.w3.org/2000/svg" version="1.1" xmlns:xlink="http://www.w3.org/1999/xlink" xmlns:svgjs="http://svgjs.dev/svgjs" width="1000" height="1000" viewBox="0 0 1000 1000"><rect width="1000" height="1000" fill="#000000"></rect><g transform="matrix(0.7,0,0,0.7,149.5757744515077,386.2729659419969)"><svg viewBox="0 0 396 129" data-background-color="#ffffff" preserveAspectRatio="xMidYMid meet" height="325" width="1000" xmlns="http://www.w3.org/2000/svg" xmlns:xlink="http://www.w3.org/1999/xlink"><g id="tight-bounds" transform="matrix(1,0,0,1,0.23999045314707246,-0.01302244623121851)"><svg viewBox="0 0 395.52 129.02602795448175" height="129.02602795448175" width="395.52"><g><svg viewBox="0 0 731.0263895936796 238.4744927669346" height="129.02602795448175" width="395.52"><g><rect width="15.561415241243628" height="207.06902411021812" x="436.2566891132032" y="15.702734328358233" fill="#ffffff" opacity="1" stroke-width="0" stroke="transparent" fill-opacity="1" class="rect-o-0" data-fill-palette-color="primary" rx="1%" id="o-0" data-palette-color="#001f3f"></rect></g><g transform="matrix(1,0,0,1,0,32.95848633754308)"><svg viewBox="0 0 395.52 172.55752009184843" height="172.55752009184843" width="395.52"><g id="textblocktransform"><svg viewBox="0 0 395.52 172.55752009184843" height="172.55752009184843" width="395.52" id="textblock"><g><svg viewBox="0 0 395.52 172.55752009184843" height="172.55752009184843" width="395.52"><g transform="matrix(1,0,0,1,0,0)"><svg width="395.52" viewBox="-0.04000000283122063 -32.15999984741211 104.51000213623047 45.599998474121094" height="172.55752009184843" data-palette-color="#001f3f"><path d="M14.76 0.56L14.76 0.56Q12.8-1.32 12.8-5.08L12.8-5.08Q12.8-9.28 15.56-13.76L15.56-13.76Q17.08-16.24 19.68-17.84 22.28-19.44 25.36-19.44L25.36-19.44Q26.72-19.44 28.28-18.96L28.28-18.96Q31.32-23.96 33.24-26.2 35.16-28.44 36.56-29.6L36.56-29.6Q39.72-32.16 42.96-32.16L42.96-32.16Q43.6-32.16 43.6-31.52L43.6-31.52Q40.96-25.72 39.54-19.82 38.12-13.92 37.34-8.34 36.56-2.76 36.56 1.12L36.56 1.12Q36.56 1.68 36 1.68L36 1.68Q34.6 1.68 34.6-1.52L34.6-1.52Q34.6-5.56 33.84-8.84L33.84-8.84Q32.44-15.08 28.96-17.08L28.96-17.08Q28.52-16.24 27.3-13.88 26.08-11.52 25.5-10.42 24.92-9.32 23.78-7.34 22.64-5.36 21.84-4.16L21.84-4.16Q19.92-1.28 17.68 0.88L17.68 0.88Q18.08 1 18.64 1L18.64 1Q22 1 24.2-1.22 26.4-3.44 27.24-6.48L27.24-6.48Q27.36-6.92 27.88-6.88L27.88-6.88Q28.2-6.84 28.12-6.56L28.12-6.56Q27.24-3.12 24.78-0.54 22.32 2.04 18.6 2.04L18.6 2.04Q17.76 2.04 16.72 1.76L16.72 1.76Q13.04 4.72 8.88 4.72L8.88 4.72Q3.48 4.72 1.2 0.48L1.2 0.48Q-0.04-1.8-0.04-4.44L-0.04-4.44Q-0.04-5.84 0.32-7.36L0.32-7.36Q1.28-11.48 4.24-13.24L4.24-13.24Q5.72-14.12 7.48-14.12L7.48-14.12Q8.04-14.12 8.4-13.78 8.76-13.44 8.92-12.72L8.92-12.72Q6.56-12.72 4.68-11.04L4.68-11.04Q1.52-8.28 1.52-3.2L1.52-3.2Q1.52-0.12 3.38 1.62 5.24 3.36 8.38 3.36 11.52 3.36 14.76 0.56ZM25.32-18L25.32-18Q21.96-18 19.28-15.8 16.6-13.6 15.36-10.66 14.12-7.72 14.12-4.72 14.12-1.72 15.64-0.16L15.64-0.16Q17.16-1.6 18.88-3.94 20.6-6.28 21.6-7.88 22.6-9.48 24.72-13.08 26.84-16.68 27.48-17.72L27.48-17.72Q26.52-18 25.32-18ZM40.88-30.6L40.88-30.6Q37.68-29.76 35.04-26.64 32.4-23.52 29.64-18.36L29.64-18.36Q33.52-16.24 35.08-9.88L35.08-9.88Q35.8-16.68 37.42-22.38 39.04-28.08 40.88-30.6ZM45-6.48L45.36-6.48Q50.52-19.24 55.4-19.24L55.4-19.24Q57.44-19.24 57.44-17.28L57.44-17.28Q57.16-16.36 56.72-14.86 56.28-13.36 55.54-9.48 54.8-5.6 54.8-2.68L54.8-2.68Q54.8 1.56 56.04 1.56L56.04 1.56Q56.52 1.56 56.96 1.18 57.4 0.8 57.56 0.8L57.56 0.8Q58.12 0.8 57.56 1.68L57.56 1.68Q57.36 1.96 56.82 2.44 56.28 2.92 55.72 2.92L55.72 2.92Q54.2 2.92 53.34 0.74 52.48-1.44 52.48-4.92L52.48-4.92Q52.48-10.44 54.2-17.04L54.2-17.04Q54.36-17.56 53.88-17.56L53.88-17.56Q53.56-17.56 53.16-17.24L53.16-17.24Q51.24-15.56 49.12-11.68 47-7.8 45.8-4.74 44.6-1.68 44.6-1.18 44.6-0.68 44.04-0.68L44.04-0.68Q42.76-0.68 42.76-3.84L42.76-3.84Q42.76-9.8 43.98-14.64 45.2-19.48 46.92-19.48L46.92-19.48Q47.64-19.48 47.64-18.6L47.64-18.6Q45.8-12.64 45-6.48L45-6.48ZM63.56 0L63.56 0Q60.28 0 60.28-5.16L60.28-5.16Q60.28-8.24 61.8-11.92L61.8-11.92Q63.92-17.08 67.36-18.96L67.36-18.96Q68.84-19.76 70.12-19.76 71.4-19.76 72.14-19.2 72.88-18.64 73.08-18.08L73.08-18.08 73.32-17.56Q73.2-16.88 72.64-16.88L72.64-16.88Q72-16.88 71.9-17.18 71.8-17.48 71.68-17.7 71.56-17.92 71.12-18.3 70.68-18.68 70.12-18.68L70.12-18.68Q67.52-18.68 65.4-14L65.4-14Q63-8.6 63-3.84L63-3.84Q63-1.44 63.96-1.44L63.96-1.44Q65.28-1.44 68.22-6.06 71.16-10.68 73.52-15.52L73.52-15.52Q74.72-17.96 76.04-17.96L76.04-17.96Q76.88-17.96 76.88-17L76.88-17Q76.72-16.72 76.4-16.08 76.08-15.44 75.24-12.42 74.4-9.4 73.72-5.5 73.04-1.6 72.56 0.6L72.56 0.6Q75.6 1.12 76.08 3.24L76.08 3.24Q76.16 3.6 76.16 4.22 76.16 4.84 75.68 5.3 75.2 5.76 74.84 5.76L74.84 5.76Q74.92 5.48 74.88 4.78 74.84 4.08 74.62 3.6 74.4 3.12 73.8 2.6 73.2 2.08 72.24 1.84L72.24 1.84Q71 6.72 68.68 9.88L68.68 9.88Q66.04 13.44 61.56 13.44L61.56 13.44Q58.28 13.44 57.2 11.12L57.2 11.12Q57.16 11 57.16 10.92L57.16 10.92Q57.16 10.68 57.6 10.58 58.04 10.48 58.2 10.88L58.2 10.88Q58.92 12.52 61.56 12.52L61.56 12.52Q65.16 12.52 67.16 9.12L67.16 9.12Q68.96 6.12 69.92 1.64L69.92 1.64Q62.72 1.8 58.8 7.16L58.8 7.16Q58.56 7.52 58.04 7.28L58.04 7.28Q57.76 7.12 57.88 6.88L57.88 6.88Q59.6 4.28 62.68 2.46 65.76 0.64 70.16 0.48L70.16 0.48Q70.6-1.52 70.94-3.74 71.28-5.96 71.52-7.24 71.76-8.52 71.84-9.08L71.84-9.08 71.4-9.08Q66.12 0 63.56 0ZM89.11-19.4L89.11-19.4Q92.15-19.4 92.15-15.84L92.15-15.84Q92.15-13.8 90.79-11.56L90.79-11.56Q88.47-7.84 84.63-7.84L84.63-7.84Q84.03-7.84 83.63-8.04 83.23-8.24 83.03-8.64L83.03-8.64Q85.87-8.64 88.23-11.92L88.23-11.92Q90.15-14.56 90.15-16.76L90.15-16.76Q90.15-18.4 88.83-18.4L88.83-18.4Q86.19-18.4 83.91-14.28L83.91-14.28Q81.47-9.8 81.47-5.08L81.47-5.08Q81.47-1.08 83.75-0.28L83.75-0.28Q84.19-0.12 84.87-0.12 85.55-0.12 86.31-0.46 87.07-0.8 87.59-1.28L87.59-1.28Q88.63-2.24 89.31-3.4L89.31-3.4Q89.47-3.72 89.91-3.72L89.91-3.72Q90.63-3.72 90.59-3.48L90.59-3.48Q90.47-3.04 89.69-2 88.91-0.96 88.25-0.34 87.59 0.28 86.53 0.78 85.47 1.28 84.39 1.28L84.39 1.28Q80.15 1.28 78.99-2.72L78.99-2.72Q78.63-4.08 78.63-5.52L78.63-5.52Q78.63-8.2 79.87-11.36L79.87-11.36Q81.83-16.16 85.27-18.28L85.27-18.28Q87.15-19.4 89.11-19.4ZM100.11 5.84L100.11 5.84Q97.79 5.84 96.69 3.4 95.59 0.96 95.59-3.92 95.59-8.8 97.03-15.48 98.47-22.16 100.41-26.56 102.35-30.96 103.79-30.96L103.79-30.96Q104.47-30.96 104.47-30.16L104.47-30.16Q103.63-28.24 102.35-24.38 101.07-20.52 100.21-17.24 99.35-13.96 98.65-9.56 97.95-5.16 97.95-2.02 97.95 1.12 98.57 2.82 99.19 4.52 100.27 4.52L100.27 4.52Q101.19 4.52 102.03 3.66 102.87 2.8 103.23 1.96L103.23 1.96Q103.43 1.52 103.95 1.72L103.95 1.72Q104.15 1.8 104.05 2.06 103.95 2.32 103.73 2.72 103.51 3.12 102.95 3.96L102.95 3.96Q101.75 5.84 100.11 5.84Z" opacity="1" transform="matrix(1,0,0,1,0,0)" fill="#ffffff" class="wordmark-text-0" data-fill-palette-color="primary" id="text-0"></path></svg></g></svg></g></svg></g></svg></g><g transform="matrix(1,0,0,1,492.5547934676501,0)"><svg viewBox="0 0 238.4715961260296 238.4744927669346" height="238.4744927669346" width="238.4715961260296"><g><svg xmlns="http://www.w3.org/2000/svg" xmlns:xlink="http://www.w3.org/1999/xlink" version="1.1" x="0" y="0" viewBox="5.412825107574463 5.195577621459961 79.76930236816406 79.77027130126953" enable-background="new 0 0 90 90" xml:space="preserve" height="238.4744927669346" width="238.4715961260296" class="icon-icon-0" data-fill-palette-color="accent" id="icon-0"><path d="M54.624 83.27c-10.792 1.801-22.246-1.411-30.727-8.272-8.062-6.522-13.088-16.744-12.728-27.17 0.349-10.096 5.499-20.182 14.078-25.707 8.769-5.647 20.783-5.62 29.498 0.129 8.154 5.379 12.661 15.857 9.907 25.391-1.424 4.931-4.572 9.475-9.052 12.082-4.663 2.714-10.561 3.268-15.615 1.341-4.544-1.733-8.418-5.448-9.851-10.154-1.47-4.826-0.243-10.416 3.327-14.027 3.452-3.492 8.998-4.743 13.484-2.567 4.259 2.065 6.884 7.148 5.307 11.755-0.85 2.483-2.859 4.611-5.423 5.317-2.69 0.741-5.774-0.221-7.439-2.493-1.629-2.222-1.495-5.503 0.597-7.389 1.054-0.95 2.599-1.429 3.984-1.015 0.41 0.122 2.233 0.566 2.058 1.209 0.087-0.652-1.341-0.82-1.755-0.934-1.29-0.356-2.733 0.004-3.719 0.904-1.739 1.586-1.995 4.459-0.597 6.34 1.417 1.906 4.102 2.721 6.348 1.971 2.287-0.765 3.875-3.013 4.245-5.344 0.746-4.703-3.812-8.759-8.323-8.569-4.774 0.201-8.548 4.373-9.111 8.971-1.056 8.621 8.8 14.488 16.466 12.536 8.546-2.177 12.86-12.372 10.766-20.465-2.34-9.045-11.891-14.664-20.877-14.543-9.785 0.131-18.28 7.23-21.955 16.011-4.038 9.649-2.194 21.17 4.201 29.364 6.485 8.309 16.93 13.113 27.352 13.664 5.766 0.305 11.749-0.537 17.004-3.006 4.955-2.328 8.907-6.258 11.976-10.734 6.303-9.194 8.662-20.938 6.135-31.824C79.845 17.355 61.052 3.689 41.936 5.329 23.164 6.939 7.154 22.991 5.551 41.756c-0.918 10.74 2.777 21.76 9.928 29.817 7.078 7.976 17.424 12.875 28.071 13.353 6.118 0.275 12.303-0.876 17.903-3.359-2.472 0.844-4.993 1.695-7.622 1.838 0.506-0.028 0.982-0.246 1.492-0.242-1.79-0.014-3.465 0.776-5.242 0.87 1.034-0.055 2.103-0.271 3.095-0.566 0.337-0.101 1.458-0.578 1.755-0.242-0.207-0.235-1.358 0.182-1.613 0.243-0.926 0.221-1.953 0.452-2.902 0.51 0.426-0.026 4.536-0.711 4.53-0.755 0.008 0.065-4.022 0.607-4.613 0.769 0.714-0.196 1.505-0.245 2.235-0.367 0.292-0.048 2.164-0.591 2.374-0.402C54.91 83.194 54.661 83.264 54.624 83.27 43.928 85.055 57.114 82.88 54.624 83.27z" fill="#ffffff" data-fill-palette-color="accent"></path></svg></g></svg></g></svg></g><defs></defs></svg><rect width="395.52" height="129.02602795448175" fill="none" stroke="none" visibility="hidden"></rect></g></svg></g></svg>