<?xml version="1.0" encoding="utf-8"?>
<!-- Generator: Adobe Illustrator 23.0.5, SVG Export Plug-In . SVG Version: 6.00 Build 0)  -->
<svg version="1.1" id="Слой_1" xmlns="http://www.w3.org/2000/svg" xmlns:xlink="http://www.w3.org/1999/xlink" x="0px" y="0px"
	 viewBox="0 0 235 65" style="enable-background:new 0 0 235 65;" xml:space="preserve">
<style type="text/css">
	.st0{display:none;fill:none;}
</style>
<g id="tight-bounds" transform="matrix(1,0,0,1,0.23999045314707246,-0.01302244623121851)">
	<g transform="matrix(1,0,0,1,0,32.95848633754308)">
		<g id="textblocktransform">
			<g>
				<g transform="matrix(1,0,0,1,0,0)">
					<path id="text-0" d="M40.8,9.3L40.8,9.3c-1.3-1.3-2-3.2-2-5.7l0,0c0-2.8,0.9-5.7,2.8-8.8l0,0c1-1.7,2.4-3,4.2-4.1
						s3.7-1.6,5.7-1.6l0,0c0.9,0,1.9,0.2,2.9,0.5l0,0c2-3.4,3.7-5.8,5-7.3s2.4-2.6,3.3-3.4l0,0c2.1-1.7,4.3-2.6,6.5-2.6l0,0
						c0.4,0,0.6,0.2,0.6,0.6l0,0c-1.8,3.9-3.1,7.8-4.1,11.8c-1,4-1.7,7.8-2.2,11.6c-0.5,3.8-0.8,6.9-0.8,9.5l0,0
						c0,0.4-0.2,0.6-0.6,0.6l0,0c-0.9,0-1.4-1.1-1.4-3.2l0,0c0-2.7-0.3-5.2-0.8-7.4l0,0c-0.9-4.2-2.6-7-4.9-8.3l0,0
						c-0.3,0.6-0.9,1.6-1.7,3.2S52-2.5,51.7-1.8c-0.4,0.7-1,1.8-1.7,3.1s-1.4,2.4-2,3.2l0,0c-1.3,1.9-2.7,3.6-4.2,5.1l0,0
						c0.3,0.1,0.6,0.1,1,0.1l0,0c2.3,0,4.1-0.7,5.6-2.2s2.5-3.3,3.1-5.3l0,0c0.1-0.3,0.3-0.4,0.6-0.4l0,0c0.2,0,0.3,0.1,0.2,0.3l0,0
						c-0.6,2.3-1.7,4.3-3.4,6.1c-1.7,1.7-3.7,2.6-6.2,2.6l0,0c-0.6,0-1.2-0.1-1.9-0.3l0,0c-2.5,2-5.1,3-7.9,3l0,0
						c-3.6,0-6.2-1.4-7.7-4.3l0,0c-0.8-1.5-1.3-3.2-1.3-5l0,0c0-0.9,0.1-1.9,0.4-2.9l0,0c0.6-2.8,2-4.7,4-5.9l0,0
						c1-0.6,2.1-0.9,3.3-0.9l0,0c0.4,0,0.7,0.1,0.9,0.3c0.2,0.2,0.4,0.6,0.5,1.1l0,0c-1.6,0-3,0.6-4.3,1.7l0,0
						c-2.1,1.9-3.2,4.5-3.2,7.9l0,0c0,2.1,0.6,3.7,1.9,4.9c1.3,1.2,2.9,1.8,5,1.8C36.5,12.1,38.6,11.2,40.8,9.3z M51.5-9.4L51.5-9.4
						c-2.3,0-4.3,0.7-6.1,2.2S42.3-4,41.4-2c-0.8,2-1.3,4-1.3,6s0.5,3.6,1.5,4.6l0,0c1-1,2.1-2.2,3.3-3.8c1.2-1.6,2.1-2.9,2.7-4
						s1.7-2.8,3.1-5.2c1.4-2.4,2.4-4,2.8-4.7l0,0C53-9.3,52.3-9.4,51.5-9.4z M67.2-22.1L67.2-22.1c-2.2,0.6-4.1,1.9-5.9,4
						c-1.8,2.1-3.6,4.9-5.4,8.4l0,0c2.6,1.4,4.4,4.3,5.5,8.6l0,0c0.5-4.6,1.3-8.8,2.4-12.6C64.8-17.7,65.9-20.5,67.2-22.1z
						 M71.3,2.2h0.4c3.5-8.6,6.8-12.9,10.1-12.9l0,0c1.4,0,2.1,0.7,2.1,2l0,0c-0.2,0.6-0.4,1.4-0.7,2.4c-0.3,1-0.7,2.8-1.2,5.4
						S81.2,4,81.2,6l0,0c0,2.9,0.4,4.3,1.3,4.3l0,0c0.3,0,0.6-0.1,0.9-0.4c0.3-0.3,0.5-0.4,0.6-0.4l0,0c0.4,0,0.4,0.3,0,0.9l0,0
						c-0.1,0.2-0.4,0.4-0.7,0.8c-0.4,0.3-0.7,0.5-1.1,0.5l0,0c-1,0-1.8-0.7-2.4-2.2c-0.6-1.5-0.9-3.4-0.9-5.7l0,0
						c0-3.7,0.6-7.8,1.7-12.2l0,0c0.1-0.3,0-0.5-0.3-0.5l0,0c-0.2,0-0.5,0.1-0.7,0.3l0,0c-1.3,1.1-2.6,3-4.1,5.6
						c-1.4,2.6-2.5,4.9-3.3,7s-1.2,3.3-1.2,3.6c0,0.3-0.2,0.5-0.6,0.5l0,0c-0.9,0-1.3-1.1-1.3-3.2l0,0c0-4,0.4-7.6,1.2-10.9
						c0.8-3.3,1.8-4.9,3-4.9l0,0c0.5,0,0.7,0.3,0.7,0.9l0,0C72.7-6,71.9-2,71.3,2.2L71.3,2.2z M90,8.7L90,8.7
						c-2.2,0-3.3-1.7-3.3-5.2l0,0c0-2.1,0.5-4.3,1.5-6.8l0,0c1.4-3.5,3.3-5.8,5.6-7.1l0,0c1-0.5,1.9-0.8,2.8-0.8
						c0.9,0,1.5,0.2,2,0.6c0.5,0.4,0.8,0.8,0.9,1.1l0,0L99.9-9c-0.1,0.5-0.3,0.7-0.7,0.7l0,0c-0.4,0-0.7-0.1-0.7-0.3
						c-0.1-0.2-0.1-0.4-0.2-0.5c-0.1-0.1-0.3-0.3-0.6-0.6c-0.3-0.3-0.6-0.4-1-0.4l0,0c-1.7,0-3.3,1.6-4.8,4.7l0,0
						c-1.6,3.6-2.4,7-2.4,10.2l0,0c0,1.6,0.3,2.4,1,2.4l0,0c0.9,0,2.3-1.6,4.3-4.7c2-3.1,3.8-6.3,5.3-9.5l0,0
						c0.8-1.6,1.7-2.5,2.5-2.5l0,0c0.6,0,0.8,0.3,0.8,1l0,0c-0.1,0.2-0.3,0.5-0.5,0.9c-0.2,0.4-0.6,1.7-1.2,3.7
						c-0.6,2-1.1,4.4-1.5,7s-0.8,4.7-1.2,6.2l0,0c2,0.3,3.2,1.2,3.6,2.7l0,0c0.1,0.2,0.1,0.6,0.1,1c0,0.4-0.2,0.8-0.5,1.1
						c-0.3,0.3-0.6,0.5-0.8,0.5l0,0c0.1-0.2,0.1-0.5,0-1c0-0.5-0.1-0.9-0.3-1.2s-0.4-0.7-0.8-1c-0.4-0.3-0.9-0.6-1.6-0.8l0,0
						c-0.8,3.3-2,6-3.6,8.1l0,0c-1.8,2.4-4.2,3.6-7.2,3.6l0,0c-2.2,0-3.7-0.8-4.4-2.3l0,0c0-0.1,0-0.1,0-0.2l0,0
						c0-0.2,0.1-0.3,0.4-0.3c0.3-0.1,0.5,0,0.6,0.3l0,0c0.5,1.1,1.6,1.7,3.4,1.7l0,0c2.4,0,4.3-1.1,5.6-3.4l0,0
						c1.2-2,2.1-4.5,2.8-7.5l0,0c-4.8,0.1-8.6,2-11.2,5.6l0,0c-0.2,0.2-0.4,0.3-0.8,0.1l0,0c-0.2-0.1-0.2-0.2-0.2-0.4l0,0
						c1.2-1.7,2.8-3.2,4.8-4.5c2.1-1.2,4.6-1.9,7.5-2l0,0c0.3-1.3,0.6-2.8,0.8-4.3c0.2-1.5,0.4-2.7,0.6-3.5c0.2-0.9,0.3-1.5,0.3-1.9
						l0,0h-0.4C94.4,5.7,91.8,8.7,90,8.7z M115.8-10.9L115.8-10.9c2,0,3.1,1.2,3.1,3.6l0,0c0,1.4-0.5,2.8-1.4,4.3l0,0
						c-1.6,2.5-3.6,3.8-6.2,3.8l0,0c-0.4,0-0.7-0.1-1-0.2c-0.3-0.1-0.5-0.3-0.6-0.6l0,0c1.9,0,3.7-1.1,5.2-3.3l0,0
						c1.3-1.8,1.9-3.4,1.9-4.9l0,0c0-1.1-0.4-1.7-1.3-1.7l0,0c-1.8,0-3.4,1.4-5,4.2l0,0c-1.6,3-2.5,6.1-2.5,9.3l0,0
						c0,2.7,0.8,4.3,2.3,4.8l0,0c0.3,0.1,0.7,0.2,1.1,0.2c0.5,0,0.9-0.1,1.5-0.3c0.5-0.2,0.9-0.5,1.3-0.8l0,0
						c0.7-0.6,1.3-1.4,1.7-2.1l0,0c0.1-0.2,0.3-0.3,0.6-0.3l0,0c0.5,0,0.7,0.1,0.7,0.2l0,0c-0.1,0.3-0.4,0.8-0.9,1.5s-1,1.3-1.5,1.7
						s-1,0.8-1.7,1.1s-1.4,0.5-2.2,0.5l0,0c-2.9,0-4.7-1.3-5.4-4l0,0c-0.2-0.9-0.4-1.9-0.4-2.8l0,0c0-1.8,0.4-3.8,1.3-5.9l0,0
						c1.3-3.2,3.1-5.6,5.4-7l0,0C113.2-10.5,114.5-10.9,115.8-10.9z M126.9,14.6L126.9,14.6c-1.6,0-2.7-0.8-3.4-2.5
						s-1.1-4.1-1.1-7.4s0.5-7.2,1.5-11.7s2.1-8.2,3.4-11.2s2.4-4.4,3.4-4.4l0,0c0.5,0,0.7,0.3,0.7,0.8l0,0c-0.6,1.3-1.3,3.2-2.1,5.8
						s-1.6,5-2.2,7.2c-0.6,2.2-1.1,4.8-1.6,7.7c-0.5,3-0.7,5.5-0.7,7.6c0,2.1,0.2,3.7,0.6,4.9c0.4,1.1,1,1.7,1.7,1.7l0,0
						c0.6,0,1.2-0.3,1.8-0.9c0.6-0.6,1-1.1,1.2-1.7l0,0c0.1-0.3,0.4-0.4,0.7-0.2l0,0c0.1,0.1,0.2,0.2,0.1,0.3s-0.2,0.4-0.3,0.7
						s-0.4,0.7-0.8,1.3l0,0C129,14,128,14.6,126.9,14.6z"/>
				</g>
			</g>
		</g>
	</g>
	<g transform="matrix(1,0,0,1,492.5547934676501,0)">
		<g>
			<path d="M-305.2,62.7c-8.6,1.4-17.7-1.1-24.5-6.6c-6.4-5.2-10.4-13.3-10.1-21.6c0.3-8,4.4-16.1,11.2-20.5
				c7-4.5,16.6-4.5,23.5,0.1c6.5,4.3,10.1,12.6,7.9,20.2c-1.1,3.9-3.6,7.5-7.2,9.6c-3.7,2.2-8.4,2.6-12.4,1.1
				c-3.6-1.4-6.7-4.3-7.8-8.1c-1.2-3.8-0.2-8.3,2.7-11.2c2.8-2.8,7.2-3.8,10.7-2c3.4,1.6,5.5,5.7,4.2,9.4c-0.7,2-2.3,3.7-4.3,4.2
				c-2.1,0.6-4.6-0.2-5.9-2c-1.3-1.8-1.2-4.4,0.5-5.9c0.8-0.8,2.1-1.1,3.2-0.8c0.3,0.1,1.8,0.5,1.6,1c0.1-0.5-1.1-0.7-1.4-0.7
				c-1-0.3-2.2,0-3,0.7c-1.4,1.3-1.6,3.6-0.5,5.1c1.1,1.5,3.3,2.2,5.1,1.6c1.8-0.6,3.1-2.4,3.4-4.3c0.6-3.7-3-7-6.6-6.8
				c-3.8,0.2-6.8,3.5-7.3,7.1c-0.8,6.9,7,11.5,13.1,10c6.8-1.7,10.2-9.9,8.6-16.3c-1.9-7.2-9.5-11.7-16.6-11.6
				c-7.8,0.1-14.6,5.8-17.5,12.8c-3.2,7.7-1.7,16.9,3.3,23.4c5.2,6.6,13.5,10.4,21.8,10.9c4.6,0.2,9.4-0.4,13.5-2.4
				c3.9-1.9,7.1-5,9.5-8.6c5-7.3,6.9-16.7,4.9-25.4c-3.5-14.9-18.4-25.8-33.7-24.5c-15,1.3-27.7,14.1-29,29
				c-0.7,8.6,2.2,17.3,7.9,23.8c5.6,6.4,13.9,10.3,22.4,10.6c4.9,0.2,9.8-0.7,14.3-2.7c-2,0.7-4,1.4-6.1,1.5c0.4,0,0.8-0.2,1.2-0.2
				c-1.4,0-2.8,0.6-4.2,0.7c0.8,0,1.7-0.2,2.5-0.5c0.3-0.1,1.2-0.5,1.4-0.2c-0.2-0.2-1.1,0.1-1.3,0.2c-0.7,0.2-1.6,0.4-2.3,0.4
				c0.3,0,3.6-0.6,3.6-0.6c0,0.1-3.2,0.5-3.7,0.6c0.6-0.2,1.2-0.2,1.8-0.3c0.2,0,1.7-0.5,1.9-0.3C-304.9,62.6-305.1,62.7-305.2,62.7
				C-313.7,64.1-303.2,62.4-305.2,62.7z"/>
		</g>
	</g>
	<rect x="16.9" y="0.5" class="st0" width="194.8" height="63.6"/>
</g>
</svg>
