<?xml version="1.0" encoding="utf-8"?>
<!-- Generator: Adobe Illustrator 23.0.5, SVG Export Plug-In . SVG Version: 6.00 Build 0)  -->
<svg version="1.1" id="Слой_1" xmlns="http://www.w3.org/2000/svg" xmlns:xlink="http://www.w3.org/1999/xlink" x="0px" y="0px"
	 viewBox="0 0 230 68" style="enable-background:new 0 0 230 68;" xml:space="preserve">
<style type="text/css">
	.st0{fill:#AC8856;}
	.st1{display:none;fill:none;}
</style>
<g id="tight-bounds" transform="matrix(1,0,0,1,0.23999045314707246,-0.01302244623121851)">
	<g>
		<g transform="matrix(1,0,0,1,0,32.95848633754308)">
			<g id="textblocktransform">
				<g>
					<g transform="matrix(1,0,0,1,0,0)">
						<path id="text-0" class="st0" d="M26.4,11L26.4,11c-1.3-1.3-2-3.2-2-5.8l0,0c0-2.9,0.9-5.8,2.8-8.9l0,0c1-1.7,2.4-3.1,4.2-4.2
							c1.8-1.1,3.7-1.6,5.7-1.6l0,0c0.9,0,1.9,0.2,3,0.5l0,0c2-3.4,3.7-5.9,5-7.4c1.3-1.5,2.4-2.7,3.4-3.5l0,0
							c2.1-1.7,4.3-2.6,6.5-2.6l0,0c0.4,0,0.6,0.2,0.6,0.7l0,0c-1.8,3.9-3.1,7.9-4.1,11.9S49.8-1.8,49.2,2s-0.8,7-0.8,9.7l0,0
							c0,0.4-0.2,0.6-0.6,0.6l0,0c-0.9,0-1.4-1.1-1.4-3.3l0,0c0-2.7-0.3-5.2-0.8-7.5l0,0c-0.9-4.2-2.6-7-4.9-8.4l0,0
							c-0.3,0.6-0.9,1.7-1.7,3.3c-0.8,1.6-1.4,2.8-1.8,3.5c-0.4,0.7-1,1.8-1.7,3.1c-0.8,1.3-1.4,2.4-2,3.2l0,0
							c-1.3,2-2.7,3.7-4.2,5.1l0,0c0.3,0.1,0.6,0.1,1,0.1l0,0c2.3,0,4.1-0.8,5.6-2.3c1.5-1.5,2.5-3.3,3.1-5.4l0,0
							c0.1-0.3,0.3-0.4,0.6-0.4l0,0c0.2,0,0.3,0.1,0.2,0.3l0,0c-0.6,2.3-1.7,4.4-3.4,6.1s-3.7,2.6-6.2,2.6l0,0
							c-0.6,0-1.2-0.1-1.9-0.3l0,0c-2.5,2-5.1,3-7.9,3l0,0c-3.6,0-6.2-1.4-7.8-4.3l0,0c-0.8-1.6-1.3-3.2-1.3-5l0,0
							c0-1,0.1-1.9,0.4-3l0,0c0.6-2.8,2-4.8,4-6l0,0c1-0.6,2.1-0.9,3.3-0.9l0,0c0.4,0,0.7,0.1,0.9,0.3c0.2,0.2,0.4,0.6,0.5,1.1l0,0
							c-1.6,0-3,0.6-4.3,1.7l0,0c-2.1,1.9-3.2,4.5-3.2,8l0,0c0,2.1,0.6,3.7,1.9,4.9s2.9,1.8,5.1,1.8S24.2,12.9,26.4,11z M37.1-7.9
							L37.1-7.9c-2.3,0-4.3,0.7-6.1,2.2c-1.8,1.5-3.1,3.2-4,5.2s-1.3,4-1.3,6.1s0.5,3.6,1.5,4.7l0,0c1-1,2.1-2.3,3.3-3.9
							s2.1-2.9,2.8-4c0.7-1.1,1.7-2.9,3.2-5.3s2.4-4,2.8-4.7l0,0C38.6-7.8,37.9-7.9,37.1-7.9z M52.8-20.8L52.8-20.8
							c-2.2,0.6-4.1,1.9-5.9,4c-1.8,2.1-3.6,4.9-5.5,8.4l0,0c2.6,1.4,4.4,4.3,5.5,8.7l0,0c0.5-4.6,1.3-8.9,2.4-12.8
							C50.4-16.2,51.6-19,52.8-20.8z M57,3.8h0.4c3.5-8.7,6.9-13,10.2-13l0,0c1.4,0,2.1,0.7,2.1,2l0,0c-0.2,0.6-0.4,1.4-0.7,2.5
							c-0.3,1-0.7,2.8-1.2,5.5s-0.7,5-0.7,6.9l0,0c0,2.9,0.4,4.3,1.3,4.3l0,0c0.3,0,0.6-0.1,0.9-0.4c0.3-0.3,0.5-0.4,0.6-0.4l0,0
							c0.4,0,0.4,0.3,0,0.9l0,0c-0.1,0.2-0.4,0.4-0.7,0.8c-0.4,0.3-0.7,0.5-1.1,0.5l0,0c-1,0-1.8-0.7-2.4-2.2
							c-0.6-1.5-0.9-3.4-0.9-5.8l0,0c0-3.8,0.6-7.9,1.7-12.4l0,0c0.1-0.4,0-0.5-0.3-0.5l0,0c-0.2,0-0.5,0.1-0.7,0.3l0,0
							c-1.3,1.1-2.7,3-4.1,5.7c-1.4,2.6-2.5,5-3.4,7.1s-1.2,3.3-1.2,3.6c0,0.3-0.2,0.5-0.6,0.5l0,0c-0.9,0-1.3-1.1-1.3-3.2l0,0
							c0-4.1,0.4-7.7,1.2-11c0.8-3.3,1.8-4.9,3-4.9l0,0c0.5,0,0.7,0.3,0.7,0.9l0,0C58.4-4.5,57.5-0.3,57,3.8L57,3.8z M75.8,10.5
							L75.8,10.5c-2.2,0-3.3-1.8-3.3-5.3l0,0c0-2.1,0.5-4.4,1.5-6.9l0,0c1.4-3.5,3.3-5.9,5.6-7.2l0,0c1-0.5,1.9-0.8,2.8-0.8
							s1.5,0.2,2,0.6c0.5,0.4,0.8,0.8,1,1.1l0,0l0.2,0.5c-0.1,0.5-0.3,0.7-0.7,0.7l0,0c-0.4,0-0.7-0.1-0.7-0.3
							C84.1-7.3,84-7.4,84-7.6c-0.1-0.1-0.3-0.4-0.6-0.6c-0.3-0.3-0.6-0.4-1-0.4l0,0c-1.8,0-3.3,1.6-4.8,4.8l0,0
							C76-0.1,75.2,3.3,75.2,6.5l0,0c0,1.6,0.3,2.4,1,2.4l0,0c0.9,0,2.3-1.6,4.3-4.7s3.8-6.4,5.4-9.7l0,0c0.8-1.7,1.7-2.5,2.5-2.5
							l0,0c0.6,0,0.8,0.3,0.8,1l0,0c-0.1,0.2-0.3,0.5-0.5,0.9c-0.2,0.4-0.6,1.7-1.2,3.7S86.5,2.2,86,4.8s-0.8,4.7-1.2,6.2l0,0
							c2,0.4,3.2,1.3,3.6,2.7l0,0c0.1,0.2,0.1,0.6,0.1,1c0,0.4-0.2,0.8-0.5,1.1c-0.3,0.3-0.6,0.5-0.8,0.5l0,0c0.1-0.2,0.1-0.5,0-1
							c0-0.5-0.1-0.9-0.3-1.2c-0.1-0.3-0.4-0.7-0.8-1s-0.9-0.6-1.6-0.8l0,0c-0.8,3.3-2,6.1-3.6,8.2l0,0c-1.8,2.4-4.2,3.6-7.2,3.6
							l0,0c-2.2,0-3.7-0.8-4.4-2.4l0,0c0-0.1,0-0.1,0-0.2l0,0c0-0.2,0.1-0.3,0.4-0.3c0.3-0.1,0.5,0,0.6,0.3l0,0
							c0.5,1.1,1.6,1.7,3.4,1.7l0,0c2.4,0,4.3-1.2,5.7-3.5l0,0c1.2-2,2.1-4.6,2.8-7.6l0,0c-4.9,0.1-8.6,2-11.2,5.6l0,0
							c-0.2,0.2-0.4,0.3-0.8,0.1l0,0c-0.2-0.1-0.2-0.2-0.2-0.4l0,0c1.2-1.8,2.8-3.3,4.9-4.5s4.6-1.9,7.6-2l0,0
							c0.3-1.4,0.6-2.8,0.8-4.3c0.2-1.5,0.4-2.7,0.6-3.6c0.2-0.9,0.3-1.5,0.3-1.9l0,0h-0.4C80.1,7.4,77.5,10.5,75.8,10.5z
							 M101.6-9.3L101.6-9.3c2,0,3.1,1.2,3.1,3.6l0,0c0,1.4-0.5,2.8-1.4,4.4l0,0c-1.6,2.5-3.6,3.8-6.2,3.8l0,0c-0.4,0-0.7-0.1-1-0.2
							c-0.3-0.1-0.5-0.3-0.6-0.6l0,0c1.9,0,3.7-1.1,5.3-3.3l0,0c1.3-1.8,1.9-3.4,1.9-4.9l0,0c0-1.1-0.4-1.7-1.3-1.7l0,0
							c-1.8,0-3.4,1.4-5,4.2l0,0c-1.6,3-2.5,6.2-2.5,9.4l0,0c0,2.7,0.8,4.4,2.3,4.9l0,0c0.3,0.1,0.7,0.2,1.1,0.2
							c0.5,0,0.9-0.1,1.5-0.3c0.5-0.2,0.9-0.5,1.3-0.8l0,0c0.7-0.7,1.3-1.4,1.7-2.2l0,0c0.1-0.2,0.3-0.3,0.6-0.3l0,0
							c0.5,0,0.7,0.1,0.7,0.2l0,0c-0.1,0.3-0.4,0.8-0.9,1.5s-1,1.3-1.5,1.7c-0.4,0.4-1,0.8-1.7,1.1c-0.7,0.3-1.4,0.5-2.2,0.5l0,0
							c-2.9,0-4.7-1.4-5.5-4.1l0,0C91.1,6.8,91,5.8,91,4.8l0,0c0-1.8,0.4-3.8,1.3-6l0,0c1.3-3.3,3.1-5.6,5.5-7.1l0,0
							C99-8.9,100.3-9.3,101.6-9.3z M112.7,16.4L112.7,16.4c-1.6,0-2.7-0.8-3.5-2.5c-0.7-1.7-1.1-4.1-1.1-7.5s0.5-7.2,1.5-11.8
							s2.1-8.3,3.4-11.3c1.3-3,2.4-4.5,3.4-4.5l0,0c0.5,0,0.7,0.3,0.7,0.8l0,0c-0.6,1.3-1.3,3.3-2.1,5.9s-1.6,5.1-2.2,7.3
							c-0.6,2.2-1.1,4.8-1.6,7.8c-0.5,3-0.7,5.6-0.7,7.7c0,2.1,0.2,3.8,0.6,4.9c0.4,1.2,1,1.7,1.7,1.7l0,0c0.6,0,1.2-0.3,1.8-0.9
							c0.6-0.6,1-1.2,1.2-1.7l0,0c0.1-0.3,0.4-0.4,0.7-0.2l0,0c0.1,0.1,0.2,0.2,0.1,0.3c-0.1,0.2-0.2,0.4-0.3,0.7
							c-0.1,0.3-0.4,0.7-0.8,1.3l0,0C114.8,15.8,113.8,16.4,112.7,16.4z"/>
					</g>
				</g>
			</g>
		</g>
		<g transform="matrix(1,0,0,1,492.5547934676501,0)">
			<g>
				<path class="st0" d="M-310.2,64.6c-8.6,1.5-17.8-1.1-24.5-6.7c-6.4-5.3-10.5-13.5-10.2-21.9c0.3-8.1,4.4-16.3,11.2-20.7
					c7-4.6,16.6-4.5,23.6,0.1c6.5,4.3,10.1,12.8,7.9,20.5c-1.1,4-3.7,7.6-7.2,9.7c-3.7,2.2-8.4,2.6-12.5,1.1
					c-3.6-1.4-6.7-4.4-7.9-8.2c-1.2-3.9-0.2-8.4,2.7-11.3c2.8-2.8,7.2-3.8,10.8-2.1c3.4,1.7,5.5,5.8,4.2,9.5c-0.7,2-2.3,3.7-4.3,4.3
					c-2.1,0.6-4.6-0.2-5.9-2c-1.3-1.8-1.2-4.4,0.5-6c0.8-0.8,2.1-1.2,3.2-0.8c0.3,0.1,1.8,0.5,1.6,1c0.1-0.5-1.1-0.7-1.4-0.8
					c-1-0.3-2.2,0-3,0.7c-1.4,1.3-1.6,3.6-0.5,5.1c1.1,1.5,3.3,2.2,5.1,1.6c1.8-0.6,3.1-2.4,3.4-4.3c0.6-3.8-3-7.1-6.6-6.9
					c-3.8,0.2-6.8,3.5-7.3,7.2c-0.8,6.9,7,11.7,13.2,10.1c6.8-1.8,10.3-10,8.6-16.5c-1.9-7.3-9.5-11.8-16.7-11.7
					c-7.8,0.1-14.6,5.8-17.5,12.9c-3.2,7.8-1.8,17.1,3.4,23.7c5.2,6.7,13.5,10.6,21.8,11c4.6,0.2,9.4-0.4,13.6-2.4
					c4-1.9,7.1-5,9.6-8.7c5-7.4,6.9-16.9,4.9-25.6c-3.5-15.1-18.5-26.1-33.7-24.8c-15,1.3-27.8,14.2-29.1,29.4
					c-0.7,8.7,2.2,17.5,7.9,24c5.7,6.4,13.9,10.4,22.4,10.8c4.9,0.2,9.8-0.7,14.3-2.7c-2,0.7-4,1.4-6.1,1.5c0.4,0,0.8-0.2,1.2-0.2
					c-1.4,0-2.8,0.6-4.2,0.7c0.8,0,1.7-0.2,2.5-0.5c0.3-0.1,1.2-0.5,1.4-0.2c-0.2-0.2-1.1,0.1-1.3,0.2c-0.7,0.2-1.6,0.4-2.3,0.4
					c0.3,0,3.6-0.6,3.6-0.6c0,0.1-3.2,0.5-3.7,0.6c0.6-0.2,1.2-0.2,1.8-0.3c0.2,0,1.7-0.5,1.9-0.3C-310,64.6-310.2,64.6-310.2,64.6
					C-318.7,66.1-308.2,64.3-310.2,64.6z"/>
			</g>
		</g>
	</g>
	<rect x="11.4" y="3.7" class="st1" width="178.7" height="58.3"/>
</g>
</svg>
