<?xml version="1.0" encoding="utf-8"?>
<!-- Generator: Adobe Illustrator 23.0.5, SVG Export Plug-In . SVG Version: 6.00 Build 0)  -->
<svg version="1.1" id="Слой_1" xmlns="http://www.w3.org/2000/svg" xmlns:xlink="http://www.w3.org/1999/xlink" x="0px" y="0px"
	 viewBox="0 0 32 32" style="enable-background:new 0 0 32 32;" xml:space="preserve">
<style type="text/css">
	.st0{fill:#AC8856;}
</style>
<g>
	<path class="st0" d="M19.2,30.7c-4.1,0.7-8.5-0.5-11.7-3.2C4.5,25,2.5,21,2.7,17C2.8,13.2,4.8,9.2,8,7.1c3.3-2.2,7.9-2.2,11.3,0
		c3.1,2.1,4.8,6.1,3.8,9.8c-0.5,1.9-1.8,3.6-3.4,4.6c-1.8,1.1-4,1.2-6,0.5c-1.7-0.7-3.2-2.1-3.8-3.9c-0.6-1.9-0.1-4,1.3-5.4
		c1.3-1.3,3.4-1.8,5.2-1c1.6,0.8,2.6,2.8,2,4.5c-0.3,1-1.1,1.8-2.1,2.1c-1,0.3-2.2-0.1-2.8-1c-0.6-0.9-0.6-2.1,0.2-2.9
		c0.4-0.4,1-0.6,1.5-0.4c0.1,0,0.9,0.2,0.8,0.5c0-0.2-0.5-0.3-0.7-0.4c-0.5-0.1-1.1,0-1.4,0.3c-0.7,0.6-0.8,1.7-0.2,2.4
		s1.6,1.1,2.4,0.8c0.9-0.3,1.5-1.1,1.6-2.1c0.3-1.8-1.4-3.4-3.2-3.3c-1.8,0.1-3.3,1.7-3.5,3.4c-0.4,3.3,3.3,5.6,6.3,4.8
		c3.3-0.9,4.9-4.8,4.1-7.9c-0.9-3.5-4.5-5.6-8-5.6c-3.7,0-7,2.8-8.4,6.2c-1.5,3.7-0.9,8.2,1.6,11.3c2.5,3.2,6.5,5.1,10.4,5.3
		c2.2,0.1,4.5-0.2,6.5-1.1c1.9-0.9,3.4-2.4,4.6-4.2c2.4-3.5,3.3-8.1,2.3-12.2C29,5.3,21.8,0,14.5,0.6C7.3,1.3,1.2,7.4,0.6,14.7
		c-0.3,4.2,1.1,8.4,3.8,11.5c2.7,3.1,6.6,5,10.7,5.2c2.3,0.1,4.7-0.3,6.8-1.3c-1,0.3-1.9,0.7-2.9,0.7c0.2,0,0.4-0.1,0.6-0.1
		c-0.7,0-1.3,0.3-2,0.3c0.4,0,0.8-0.1,1.2-0.2c0.1,0,0.6-0.2,0.7-0.1c-0.1-0.1-0.5,0-0.6,0.1c-0.3,0.1-0.8,0.2-1.1,0.2
		c0.1,0,1.7-0.3,1.7-0.3c0,0-1.5,0.2-1.8,0.3c0.3-0.1,0.6-0.1,0.9-0.1c0.1,0,0.8-0.2,0.9-0.1C19.3,30.7,19.2,30.7,19.2,30.7
		C15.2,31.4,20.2,30.6,19.2,30.7z"/>
</g>
</svg>
